<?xml version="1.0" encoding="UTF-8"?>
<svg xmlns="http://www.w3.org/2000/svg" viewBox="0 0 800 240" width="100%" height="100%">
  <rect width="800" height="240" fill="#0d1117" rx="8" />

  <rect x="20" y="20" width="200" height="200" rx="8" fill="#161b22" stroke="#58a6ff" stroke-width="1.5" />
  <text x="35" y="48" fill="#58a6ff" font-family="sans-serif" font-size="12" font-weight="bold">📥 User Query</text>
  <rect x="35" y="60" width="170" height="50" rx="4" fill="#21262d" />
  <text x="45" y="80" fill="#f0f6fc" font-family="sans-serif" font-size="10">"Error 503 on</text>
  <text x="45" y="98" fill="#f0f6fc" font-family="sans-serif" font-size="10">payments-api"</text>
  <text x="35" y="145" fill="#c9d1d9" font-family="sans-serif" font-size="11">Dual Dispatch ──►</text>
  <text x="35" y="168" fill="#3fb950" font-family="sans-serif" font-size="10">Parallel Execution</text>

  <path d="M 220 85 L 270 65" stroke="#388bfd" stroke-width="2" />
  <path d="M 220 155 L 270 175" stroke="#d29922" stroke-width="2" />

  <rect x="275" y="25" width="240" height="80" rx="6" fill="#1b2a4a" stroke="#388bfd" />
  <text x="285" y="48" fill="#58a6ff" font-family="sans-serif" font-size="11" font-weight="bold">1. Dense Vector Search (ChromaDB)</text>
  <text x="285" y="68" fill="#c9d1d9" font-family="sans-serif" font-size="10">• Semantic meaning &amp; concepts</text>
  <text x="285" y="88" fill="#8b949e" font-family="sans-serif" font-size="10">Finds: "Server outage &amp; memory"</text>

  <rect x="275" y="135" width="240" height="80" rx="6" fill="#382915" stroke="#d29922" />
  <text x="285" y="158" fill="#d29922" font-family="sans-serif" font-size="11" font-weight="bold">2. Sparse Keyword Search (BM25)</text>
  <text x="285" y="178" fill="#c9d1d9" font-family="sans-serif" font-size="10">• Exact term frequency matching</text>
  <text x="285" y="198" fill="#8b949e" font-family="sans-serif" font-size="10">Finds exact: "Error 503", "payments-api"</text>

  <path d="M 515 65 L 565 110" stroke="#388bfd" stroke-width="2" />
  <path d="M 515 175 L 565 130" stroke="#d29922" stroke-width="2" />

  <rect x="570" y="25" width="210" height="190" rx="8" fill="#1f2d23" stroke="#238636" stroke-width="2" />
  <text x="585" y="52" fill="#3fb950" font-family="sans-serif" font-size="12" font-weight="bold">🔀 Reciprocal Rank Fusion</text>
  <text x="585" y="75" fill="#f0f6fc" font-family="sans-serif" font-size="10">RRF Score = sum( 1 / (60 + rank) )</text>
  <rect x="585" y="90" width="180" height="65" rx="4" fill="#21262d" />
  <text x="595" y="110" fill="#3fb950" font-family="sans-serif" font-size="10" font-weight="bold">Top Ranked Document:</text>
  <text x="595" y="128" fill="#c9d1d9" font-family="sans-serif" font-size="9">RB-301: Cloud Run 503</text>
  <text x="595" y="145" fill="#c9d1d9" font-family="sans-serif" font-size="9">OOM Resolution Guide</text>
  <text x="585" y="185" fill="#3fb950" font-family="sans-serif" font-size="10" font-weight="bold">🏆 100% Retrieval Precision</text>
</svg>