<?xml version="1.0" encoding="UTF-8"?>
<svg xmlns="http://www.w3.org/2000/svg" viewBox="0 0 800 200" width="100%" height="100%">
  <rect width="800" height="200" fill="#0d1117" rx="8" />

  <rect x="20" y="20" width="165" height="150" rx="6" fill="#161b22" stroke="#8b949e" />
  <text x="30" y="45" fill="#c9d1d9" font-family="sans-serif" font-size="11" font-weight="bold">Stage 1: Pre-Training</text>
  <text x="30" y="68" fill="#8b949e" font-family="sans-serif" font-size="10">"Reading Library"</text>
  <text x="30" y="95" fill="#c9d1d9" font-family="sans-serif" font-size="9">• Trillions of tokens</text>
  <text x="30" y="115" fill="#c9d1d9" font-family="sans-serif" font-size="9">• World facts</text>
  <text x="30" y="145" fill="#58a6ff" font-family="sans-serif" font-size="9">Raw Base Model</text>

  <path d="M 190 95 L 215 95" stroke="#388bfd" stroke-width="2" />

  <rect x="220" y="20" width="170" height="150" rx="6" fill="#161b22" stroke="#388bfd" />
  <text x="230" y="45" fill="#58a6ff" font-family="sans-serif" font-size="11" font-weight="bold">Stage 2: SFT</text>
  <text x="230" y="68" fill="#8b949e" font-family="sans-serif" font-size="10">"Job Onboarding"</text>
  <text x="230" y="95" fill="#c9d1d9" font-family="sans-serif" font-size="9">• 100k Q&amp;A pairs</text>
  <text x="230" y="115" fill="#c9d1d9" font-family="sans-serif" font-size="9">• Learns roles &amp; format</text>
  <text x="230" y="145" fill="#3fb950" font-family="sans-serif" font-size="9">Instruct Assistant</text>

  <path d="M 395 95 L 420 95" stroke="#388bfd" stroke-width="2" />

  <rect x="425" y="20" width="170" height="150" rx="6" fill="#161b22" stroke="#a371f7" />
  <text x="435" y="45" fill="#bc8cff" font-family="sans-serif" font-size="11" font-weight="bold">Stage 3: DPO / RLHF</text>
  <text x="435" y="68" fill="#8b949e" font-family="sans-serif" font-size="10">"Performance Review"</text>
  <text x="435" y="95" fill="#c9d1d9" font-family="sans-serif" font-size="9">• Preference pairs</text>
  <text x="435" y="115" fill="#c9d1d9" font-family="sans-serif" font-size="9">• Safety alignment</text>
  <text x="435" y="145" fill="#bc8cff" font-family="sans-serif" font-size="9">Aligned Model</text>

  <path d="M 600 95 L 625 95" stroke="#238636" stroke-width="2" />

  <rect x="630" y="20" width="150" height="150" rx="6" fill="#1f2d23" stroke="#238636" />
  <text x="640" y="45" fill="#3fb950" font-family="sans-serif" font-size="11" font-weight="bold">Stage 4: GRPO</text>
  <text x="640" y="68" fill="#8b949e" font-family="sans-serif" font-size="10">"Practice Exams"</text>
  <text x="640" y="95" fill="#c9d1d9" font-family="sans-serif" font-size="9">• Automated grading</text>
  <text x="640" y="115" fill="#c9d1d9" font-family="sans-serif" font-size="9">• Math &amp; Code rewards</text>
  <text x="640" y="145" fill="#3fb950" font-family="sans-serif" font-size="9">Reasoning Champion</text>
</svg>